<svg width="540" height="136" viewBox="0 0 540 136" fill="none" xmlns="http://www.w3.org/2000/svg">
<g clip-path="url(#clip0_131_117)">
<path d="M292.35 91.4972C294.413 117.099 334.384 112.718 351.662 107.219L355.96 129.385C315.559 144.849 261.576 134.797 261.576 82.2186C261.576 12.1996 361.719 4.55338 361.719 78.6102C361.719 84.1946 361.117 89.1775 360.688 91.4972H292.35ZM331.375 69.0739C331.375 40.1213 292.264 39.7776 292.607 69.0739H331.375ZM395.415 57.5616C395.415 44.2451 420.258 48.5407 427.736 51.5477L430.057 29.3822C404.871 21.5641 365.931 27.4062 365.931 60.4826C365.415 93.1295 413.467 88.662 413.467 104.212C413.467 120.622 375.817 112.202 367.564 107.219L363.266 129.385C391.289 141.756 444.413 139.007 442.951 101.893C442.607 65.8951 395.415 72.2527 395.415 57.5616ZM432.894 51.5477H448.281V95.621C448.281 118.732 454.126 136 479.742 136C489.026 136 496.676 133.68 500.974 131.962V107.219C485.673 110.054 478.195 111.085 478.195 90.638V0H448.281V29.2963H435.215L432.894 51.5477ZM91.7192 133.852L117.765 29.3822L124.728 136H154.04L145.1 0H99.3696L77.0201 91.4112L54.5845 0H8.93983L0 136H29.3123L36.2751 29.3822L62.3209 133.852H91.7192ZM507.335 40.1213L501.404 29.2963H483.61V51.5477H501.06L507.335 40.1213Z" fill="white"/>
<path d="M186.619 91.4972C188.682 117.099 228.653 112.718 245.931 107.219L250.229 129.385C209.828 144.849 155.845 134.797 155.845 82.2186C155.845 12.1996 255.988 4.55338 255.988 78.6102C255.988 84.1946 255.387 89.1775 254.957 91.4972H186.619ZM225.645 69.0739C225.645 40.1213 186.533 39.7776 186.877 69.0739H225.645ZM517.564 0H495.387L517.564 40.1213L495.387 80.2426H517.564L540 40.1213L517.564 0Z" fill="white"/>
</g>
<defs>
<clipPath id="clip0_131_117">
<rect width="540" height="136" fill="white"/>
</clipPath>
</defs>
</svg>
