<svg width="500" height="295" viewBox="0 0 500 295" fill="none" xmlns="http://www.w3.org/2000/svg">
<path d="M138.045 123.455H150.182L163 154.727H163.545L176.364 123.455H188.5V170H178.955V139.705H178.568L166.523 169.773H160.023L147.977 139.591H147.591V170H138.045V123.455ZM213.479 170.682C209.949 170.682 206.896 169.932 204.32 168.432C201.759 166.917 199.782 164.811 198.388 162.114C196.994 159.402 196.297 156.258 196.297 152.682C196.297 149.076 196.994 145.924 198.388 143.227C199.782 140.515 201.759 138.409 204.32 136.909C206.896 135.394 209.949 134.636 213.479 134.636C217.009 134.636 220.055 135.394 222.615 136.909C225.191 138.409 227.176 140.515 228.57 143.227C229.964 145.924 230.661 149.076 230.661 152.682C230.661 156.258 229.964 159.402 228.57 162.114C227.176 164.811 225.191 166.917 222.615 168.432C220.055 169.932 217.009 170.682 213.479 170.682ZM213.524 163.182C215.13 163.182 216.471 162.727 217.547 161.818C218.623 160.894 219.433 159.636 219.979 158.045C220.539 156.455 220.82 154.644 220.82 152.614C220.82 150.583 220.539 148.773 219.979 147.182C219.433 145.591 218.623 144.333 217.547 143.409C216.471 142.485 215.13 142.023 213.524 142.023C211.903 142.023 210.539 142.485 209.433 143.409C208.342 144.333 207.517 145.591 206.956 147.182C206.411 148.773 206.138 150.583 206.138 152.614C206.138 154.644 206.411 156.455 206.956 158.045C207.517 159.636 208.342 160.894 209.433 161.818C210.539 162.727 211.903 163.182 213.524 163.182ZM238.418 170V123.455H248.1V140.955H248.395C248.819 140.015 249.433 139.061 250.236 138.091C251.054 137.106 252.115 136.288 253.418 135.636C254.736 134.97 256.372 134.636 258.327 134.636C260.872 134.636 263.221 135.303 265.372 136.636C267.524 137.955 269.244 139.947 270.532 142.614C271.819 145.265 272.463 148.591 272.463 152.591C272.463 156.485 271.835 159.773 270.577 162.455C269.335 165.121 267.638 167.144 265.486 168.523C263.35 169.886 260.956 170.568 258.304 170.568C256.426 170.568 254.827 170.258 253.509 169.636C252.206 169.015 251.138 168.235 250.304 167.295C249.471 166.341 248.835 165.379 248.395 164.409H247.963V170H238.418ZM247.895 152.545C247.895 154.621 248.183 156.432 248.759 157.977C249.335 159.523 250.168 160.727 251.259 161.591C252.35 162.439 253.676 162.864 255.236 162.864C256.812 162.864 258.145 162.432 259.236 161.568C260.327 160.689 261.153 159.477 261.713 157.932C262.289 156.371 262.577 154.576 262.577 152.545C262.577 150.53 262.297 148.758 261.736 147.227C261.176 145.697 260.35 144.5 259.259 143.636C258.168 142.773 256.827 142.341 255.236 142.341C253.66 142.341 252.327 142.758 251.236 143.591C250.16 144.424 249.335 145.606 248.759 147.136C248.183 148.667 247.895 150.47 247.895 152.545ZM280.204 170V135.091H289.885V170H280.204ZM285.067 130.591C283.628 130.591 282.393 130.114 281.363 129.159C280.348 128.189 279.84 127.03 279.84 125.682C279.84 124.348 280.348 123.205 281.363 122.25C282.393 121.28 283.628 120.795 285.067 120.795C286.507 120.795 287.734 121.28 288.749 122.25C289.779 123.205 290.295 124.348 290.295 125.682C290.295 127.03 289.779 128.189 288.749 129.159C287.734 130.114 286.507 130.591 285.067 130.591ZM324.353 136.841C324.171 135.008 323.391 133.583 322.012 132.568C320.633 131.553 318.762 131.045 316.398 131.045C314.792 131.045 313.436 131.273 312.33 131.727C311.224 132.167 310.376 132.78 309.785 133.568C309.209 134.356 308.921 135.25 308.921 136.25C308.891 137.083 309.065 137.811 309.444 138.432C309.838 139.053 310.376 139.591 311.057 140.045C311.739 140.485 312.527 140.871 313.421 141.205C314.315 141.523 315.27 141.795 316.285 142.023L320.467 143.023C322.497 143.477 324.361 144.083 326.057 144.841C327.754 145.598 329.224 146.53 330.467 147.636C331.709 148.742 332.671 150.045 333.353 151.545C334.05 153.045 334.406 154.765 334.421 156.705C334.406 159.553 333.679 162.023 332.239 164.114C330.815 166.189 328.754 167.803 326.057 168.955C323.376 170.091 320.141 170.659 316.353 170.659C312.595 170.659 309.323 170.083 306.535 168.932C303.762 167.78 301.595 166.076 300.035 163.818C298.489 161.545 297.679 158.735 297.603 155.386H307.126C307.232 156.947 307.679 158.25 308.467 159.295C309.27 160.326 310.338 161.106 311.671 161.636C313.02 162.152 314.542 162.409 316.239 162.409C317.906 162.409 319.353 162.167 320.58 161.682C321.823 161.197 322.785 160.523 323.467 159.659C324.148 158.795 324.489 157.803 324.489 156.682C324.489 155.636 324.179 154.758 323.557 154.045C322.951 153.333 322.057 152.727 320.876 152.227C319.709 151.727 318.277 151.273 316.58 150.864L311.512 149.591C307.588 148.636 304.489 147.144 302.217 145.114C299.944 143.083 298.815 140.348 298.83 136.909C298.815 134.091 299.565 131.629 301.08 129.523C302.611 127.417 304.709 125.773 307.376 124.591C310.042 123.409 313.073 122.818 316.467 122.818C319.921 122.818 322.936 123.409 325.512 124.591C328.103 125.773 330.118 127.417 331.557 129.523C332.997 131.629 333.739 134.068 333.785 136.841H324.353ZM357.911 170.682C354.336 170.682 351.26 169.924 348.684 168.409C346.123 166.879 344.154 164.758 342.775 162.045C341.411 159.333 340.73 156.212 340.73 152.682C340.73 149.106 341.419 145.97 342.798 143.273C344.192 140.561 346.169 138.447 348.73 136.932C351.29 135.402 354.336 134.636 357.866 134.636C360.911 134.636 363.578 135.189 365.866 136.295C368.154 137.402 369.964 138.955 371.298 140.955C372.631 142.955 373.366 145.303 373.502 148H364.366C364.108 146.258 363.427 144.856 362.32 143.795C361.23 142.72 359.798 142.182 358.025 142.182C356.525 142.182 355.214 142.591 354.093 143.409C352.987 144.212 352.123 145.386 351.502 146.932C350.881 148.477 350.57 150.348 350.57 152.545C350.57 154.773 350.873 156.667 351.48 158.227C352.101 159.788 352.972 160.977 354.093 161.795C355.214 162.614 356.525 163.023 358.025 163.023C359.131 163.023 360.123 162.795 361.002 162.341C361.896 161.886 362.631 161.227 363.207 160.364C363.798 159.485 364.184 158.432 364.366 157.205H373.502C373.351 159.871 372.623 162.22 371.32 164.25C370.033 166.265 368.252 167.841 365.98 168.977C363.707 170.114 361.017 170.682 357.911 170.682ZM390.936 170.659C388.708 170.659 386.724 170.273 384.981 169.5C383.239 168.712 381.86 167.553 380.845 166.023C379.845 164.477 379.345 162.553 379.345 160.25C379.345 158.311 379.701 156.682 380.413 155.364C381.125 154.045 382.095 152.985 383.322 152.182C384.549 151.379 385.943 150.773 387.504 150.364C389.08 149.955 390.731 149.667 392.458 149.5C394.489 149.288 396.125 149.091 397.367 148.909C398.61 148.712 399.511 148.424 400.072 148.045C400.633 147.667 400.913 147.106 400.913 146.364V146.227C400.913 144.788 400.458 143.674 399.549 142.886C398.655 142.098 397.383 141.705 395.731 141.705C393.989 141.705 392.602 142.091 391.572 142.864C390.542 143.621 389.86 144.576 389.527 145.727L380.572 145C381.027 142.879 381.921 141.045 383.254 139.5C384.587 137.939 386.307 136.742 388.413 135.909C390.534 135.061 392.989 134.636 395.777 134.636C397.716 134.636 399.572 134.864 401.345 135.318C403.133 135.773 404.716 136.477 406.095 137.432C407.489 138.386 408.587 139.614 409.39 141.114C410.193 142.598 410.595 144.379 410.595 146.455V170H401.413V165.159H401.14C400.58 166.25 399.83 167.212 398.89 168.045C397.951 168.864 396.822 169.508 395.504 169.977C394.186 170.432 392.663 170.659 390.936 170.659ZM393.708 163.977C395.133 163.977 396.39 163.697 397.481 163.136C398.572 162.561 399.428 161.788 400.049 160.818C400.671 159.848 400.981 158.75 400.981 157.523V153.818C400.678 154.015 400.261 154.197 399.731 154.364C399.216 154.515 398.633 154.659 397.981 154.795C397.33 154.917 396.678 155.03 396.027 155.136C395.375 155.227 394.784 155.311 394.254 155.386C393.117 155.553 392.125 155.818 391.277 156.182C390.428 156.545 389.769 157.038 389.299 157.659C388.83 158.265 388.595 159.023 388.595 159.932C388.595 161.25 389.072 162.258 390.027 162.955C390.996 163.636 392.224 163.977 393.708 163.977ZM429.068 123.455V170H419.386V123.455H429.068ZM454.013 170.682C450.422 170.682 447.331 169.955 444.74 168.5C442.164 167.03 440.179 164.955 438.785 162.273C437.392 159.576 436.695 156.386 436.695 152.705C436.695 149.114 437.392 145.962 438.785 143.25C440.179 140.538 442.142 138.424 444.672 136.909C447.217 135.394 450.202 134.636 453.626 134.636C455.929 134.636 458.073 135.008 460.058 135.75C462.058 136.477 463.801 137.576 465.285 139.045C466.785 140.515 467.952 142.364 468.785 144.591C469.619 146.803 470.035 149.394 470.035 152.364V155.023H440.558V149.023H460.922C460.922 147.629 460.619 146.394 460.013 145.318C459.407 144.242 458.566 143.402 457.49 142.795C456.429 142.174 455.195 141.864 453.785 141.864C452.316 141.864 451.013 142.205 449.876 142.886C448.755 143.553 447.876 144.455 447.24 145.591C446.604 146.712 446.278 147.962 446.263 149.341V155.045C446.263 156.773 446.581 158.265 447.217 159.523C447.869 160.78 448.785 161.75 449.967 162.432C451.149 163.114 452.551 163.455 454.172 163.455C455.248 163.455 456.232 163.303 457.126 163C458.02 162.697 458.785 162.242 459.422 161.636C460.058 161.03 460.543 160.288 460.876 159.409L469.831 160C469.376 162.152 468.445 164.03 467.035 165.636C465.642 167.227 463.838 168.47 461.626 169.364C459.429 170.242 456.892 170.682 454.013 170.682Z" fill="white"/>
<path d="M43.7522 201.167C41.9677 198.441 40.1832 195.715 38.298 192.835C30.8856 197.718 23.6928 202.526 16.4244 207.216C12.2841 209.888 10.3209 208.97 10.1427 203.993C9.90439 197.338 10.0027 190.664 10.161 184.003C10.3484 176.117 14.7041 169.977 19.9115 164.852C26.7553 158.115 28.6471 150.753 27.8828 141.234C26.4938 123.938 26.9549 106.617 33.8043 90.0872C39.3414 76.7241 47.1644 65.2545 58.7048 56.3176C62.4749 53.3981 65.222 53.11 69.1285 56.1807C90.338 72.8517 99.365 95.3866 100.597 121.492C101.043 130.943 99.821 140.464 99.836 149.952C99.84 152.64 101.468 155.347 102.476 157.997C102.758 158.738 103.406 159.398 104.02 159.945C117.549 171.992 119.202 187.667 117.64 204.341C117.208 208.955 115.564 209.781 111.487 207.084C104.155 202.234 96.911 197.251 89.475 192.219C87 196 85.5 198 83.5 201.167H76H68.5H48.8761H43.7522ZM46.556 114.834C45.282 122.125 47.7596 128.019 53.6849 132.214C59.4498 136.297 65.7689 136.741 72.0636 133.352C78.367 129.959 81.363 124.478 81.143 117.364C80.887 109.071 74.7191 102.297 66.3989 100.931C57.7383 99.5087 50.028 104.653 46.556 114.834Z" fill="#FCBA1B"/>
<path d="M54 218.5C54 216.015 51.9853 214 49.5 214C47.0147 214 45 216.015 45 218.5V236.5C45 238.985 47.0147 241 49.5 241C51.9853 241 54 238.985 54 236.5V218.5Z" fill="#FFBA1B"/>
<path d="M69 218.5C69 216.015 66.9853 214 64.5 214C62.0147 214 60 216.015 60 218.5V252.5C60 254.985 62.0147 257 64.5 257C66.9853 257 69 254.985 69 252.5V218.5Z" fill="#FFBA1B"/>
<path d="M84 218.5C84 216.015 81.9853 214 79.5 214C77.0147 214 75 216.015 75 218.5V236.5C75 238.985 77.0147 241 79.5 241C81.9853 241 84 238.985 84 236.5V218.5Z" fill="#FFBA1B"/>
</svg>
