<svg width="1742" height="423" viewBox="0 0 1742 423" fill="none" xmlns="http://www.w3.org/2000/svg">
<mask id="mask0_2279_1749" style="mask-type:luminance" maskUnits="userSpaceOnUse" x="412" y="49" width="1298" height="218">
<path d="M1709.67 49H412.333V266.333H1709.67V49Z" fill="white"/>
</mask>
<g mask="url(#mask0_2279_1749)">
<path d="M453.912 223.327H433.224V53.6602H453.912V223.327Z" fill="#003872"/>
<path d="M592.076 158.952C592.076 159.993 592.055 161.098 592.014 162.264C591.972 163.421 591.873 165.118 591.722 167.368H489.909C490.795 175.551 493.206 182.655 497.139 188.681C501.066 194.697 505.998 199.327 511.93 202.577C517.873 205.827 524.212 207.452 530.951 207.452C539.212 207.452 546.269 205.671 552.118 202.098C557.977 198.53 562.269 193.296 564.993 186.389H588.222C586.456 192.004 583.831 197.259 580.347 202.16C576.857 207.051 572.644 211.322 567.701 214.973C562.769 218.613 557.232 221.473 551.097 223.556C544.956 225.65 538.399 226.702 531.43 226.702C522.524 226.702 514.284 225.03 506.701 221.702C499.118 218.368 492.498 213.738 486.847 207.806C481.191 201.863 476.795 194.983 473.659 187.16C470.534 179.342 468.972 170.941 468.972 161.952C468.972 152.967 470.534 144.566 473.659 136.743C476.795 128.926 481.191 122.051 486.847 116.118C492.498 110.176 499.118 105.525 506.701 102.16C514.284 98.7852 522.524 97.0977 531.43 97.0977C540.248 97.0977 548.368 98.7435 555.784 102.035C563.212 105.327 569.639 109.863 575.055 115.639C580.472 121.405 584.659 128.004 587.618 135.431C590.587 142.848 592.076 150.691 592.076 158.952ZM490.889 149.077H570.889C570.566 144.743 569.305 140.613 567.097 136.681C564.899 132.754 561.998 129.285 558.389 126.285C554.774 123.275 550.623 120.905 545.93 119.181C541.232 117.462 536.284 116.598 531.076 116.598C524.977 116.598 519.159 117.842 513.618 120.327C508.087 122.816 503.316 126.467 499.305 131.285C495.29 136.092 492.482 142.025 490.889 149.077Z" fill="#003872"/>
<path d="M675.235 223.327H652.61C647.953 223.327 643.339 222.733 638.755 221.535C634.183 220.327 630.031 218.119 626.297 214.91C622.573 211.702 619.589 207.113 617.339 201.139C615.099 195.155 613.985 187.389 613.985 177.848V118.764H586.672V100.598H613.985V64.1394L634.672 64.0144V100.598H675.235V118.764H634.672V178.806C634.672 184.504 635.287 189.134 636.526 192.702C637.776 196.275 639.464 199.004 641.589 200.889C643.714 202.78 646.078 204.066 648.693 204.744C651.302 205.426 653.969 205.764 656.693 205.764H675.235V223.327Z" fill="#003872"/>
<path d="M696.42 102.389H680.774L694.483 59.2019H715.066L696.42 102.389Z" fill="#003872"/>
<path d="M772.481 226.827C763.898 226.827 756.398 225.681 749.981 223.389C743.564 221.098 738.221 218.009 733.96 214.118C729.71 210.233 726.523 205.822 724.398 200.889C722.273 195.962 721.21 190.884 721.21 185.66L741.189 185.785C741.273 190.202 742.533 194.259 744.981 197.952C747.424 201.634 750.971 204.556 755.627 206.723C760.278 208.889 765.971 209.973 772.71 209.973C782.012 209.973 789.033 208.15 793.773 204.493C798.507 200.842 800.877 195.931 800.877 189.764C800.877 185.181 799.632 181.592 797.148 178.993C794.658 176.384 791.111 174.379 786.502 172.973C781.887 171.572 776.377 170.348 769.96 169.306C764.252 168.421 758.804 167.197 753.627 165.639C748.46 164.072 743.866 161.926 739.856 159.202C735.856 156.467 732.71 152.973 730.419 148.723C728.137 144.473 727.002 139.259 727.002 133.077C727.002 126.342 728.616 120.264 731.856 114.848C735.106 109.431 740.002 105.118 746.544 101.91C753.085 98.7018 761.21 97.0977 770.919 97.0977C780.377 97.0977 788.632 98.681 795.689 101.848C802.757 105.014 808.257 109.368 812.189 114.91C816.116 120.441 818.085 126.78 818.085 133.931H797.752C797.429 128.072 794.924 123.358 790.231 119.785C785.533 116.217 779.096 114.431 770.919 114.431C765.627 114.431 761.252 115.259 757.794 116.91C754.346 118.551 751.757 120.754 750.023 123.514C748.299 126.28 747.439 129.306 747.439 132.598C747.439 136.447 748.299 139.613 750.023 142.098C751.757 144.587 754.773 146.613 759.064 148.181C763.356 149.754 769.314 151.176 776.939 152.452C782.549 153.342 788.044 154.488 793.419 155.889C798.794 157.296 803.627 159.28 807.919 161.848C812.21 164.405 815.616 167.848 818.148 172.181C820.674 176.514 821.939 182.014 821.939 188.681C821.939 197.014 819.846 204.03 815.669 209.723C811.502 215.421 805.7 219.697 798.273 222.556C790.856 225.4 782.257 226.827 772.481 226.827Z" fill="#003872"/>
<path d="M934.833 226.827C925.916 226.827 917.666 225.134 910.083 221.764C902.51 218.389 895.88 213.738 890.187 207.806C884.489 201.863 880.052 194.983 876.875 187.16C873.708 179.342 872.125 170.941 872.125 161.952C872.125 152.967 873.708 144.566 876.875 136.743C880.052 128.926 884.489 122.051 890.187 116.118C895.88 110.176 902.51 105.525 910.083 102.16C917.666 98.7852 925.916 97.0977 934.833 97.0977C944.609 97.0977 953.469 98.9883 961.416 102.764C969.359 106.53 976.114 111.681 981.687 118.223C987.271 124.764 991.26 132.285 993.666 140.785H972.375C969.166 132.842 964.208 126.827 957.5 122.743C950.802 118.65 943.281 116.598 934.937 116.598C929.562 116.598 924.364 117.639 919.354 119.723C914.338 121.806 909.823 124.816 905.812 128.743C901.812 132.676 898.646 137.452 896.312 143.077C893.989 148.691 892.833 154.983 892.833 161.952C892.833 169.025 894.01 175.363 896.375 180.973C898.75 186.587 901.937 191.358 905.937 195.285C909.948 199.217 914.463 202.233 919.479 204.327C924.489 206.41 929.646 207.452 934.937 207.452C943.198 207.452 950.698 205.348 957.437 201.139C964.187 196.921 969.166 190.598 972.375 182.181H993.541C991.219 191.004 987.291 198.764 981.75 205.473C976.219 212.171 969.442 217.405 961.416 221.181C953.385 224.941 944.526 226.827 934.833 226.827Z" fill="#003872"/>
<path d="M1055.88 226.827C1047.45 226.827 1039.64 225.155 1032.46 221.827C1025.28 218.493 1019.01 213.863 1013.63 207.931C1008.26 201.988 1004.06 195.087 1001.05 187.223C998.048 179.363 996.548 170.941 996.548 161.952C996.548 152.967 998.048 144.566 1001.05 136.743C1004.06 128.926 1008.26 122.051 1013.63 116.118C1019.01 110.176 1025.28 105.546 1032.46 102.223C1039.64 98.8893 1047.41 97.2227 1055.76 97.2227C1063.13 97.2227 1069.99 98.4258 1076.32 100.827C1082.66 103.233 1088.26 106.66 1093.11 111.118C1097.97 115.577 1101.76 120.858 1104.49 126.952V100.598H1124.34V223.327H1104.49V197.223C1101.76 203.238 1097.97 208.473 1093.11 212.931C1088.26 217.379 1082.66 220.806 1076.32 223.223C1069.99 225.624 1063.17 226.827 1055.88 226.827ZM1060.44 207.452C1066.45 207.452 1072.09 206.306 1077.34 204.014C1082.6 201.723 1087.2 198.514 1091.13 194.389C1095.06 190.254 1098.15 185.421 1100.4 179.889C1102.65 174.348 1103.78 168.368 1103.78 161.952C1103.78 155.618 1102.65 149.712 1100.4 144.223C1098.15 138.723 1095.04 133.91 1091.07 129.785C1087.09 125.65 1082.5 122.421 1077.28 120.098C1072.07 117.764 1066.5 116.598 1060.57 116.598C1054.55 116.598 1048.93 117.702 1043.71 119.91C1038.51 122.108 1033.89 125.254 1029.88 129.348C1025.87 133.447 1022.74 138.243 1020.49 143.743C1018.25 149.233 1017.13 155.301 1017.13 161.952C1017.13 168.775 1018.27 174.973 1020.55 180.556C1022.84 186.129 1025.97 190.921 1029.94 194.931C1033.91 198.947 1038.53 202.035 1043.78 204.202C1049.04 206.368 1054.59 207.452 1060.44 207.452Z" fill="#003872"/>
<path d="M1170.55 223.327H1149.73V100.598H1169.71V128.035C1172.75 119.525 1177.5 112.822 1183.96 107.931C1190.42 103.046 1198.1 100.598 1207 100.598H1218.92V118.764H1208.09C1200.95 118.764 1194.53 120.613 1188.84 124.306C1183.14 127.988 1178.67 133.322 1175.42 140.306C1172.17 147.28 1170.55 155.702 1170.55 165.577V223.327Z" fill="#003872"/>
<path d="M1282.24 226.827C1273.16 226.827 1264.76 225.155 1257.01 221.827C1249.27 218.493 1242.51 213.863 1236.74 207.931C1230.96 201.988 1226.47 195.087 1223.26 187.223C1220.05 179.363 1218.44 170.941 1218.44 161.952C1218.44 152.967 1220.05 144.566 1223.26 136.743C1226.47 128.926 1230.93 122.051 1236.67 116.118C1242.41 110.176 1249.14 105.525 1256.88 102.16C1264.63 98.7852 1273.08 97.0977 1282.24 97.0977C1291.37 97.0977 1299.83 98.7643 1307.61 102.098C1315.39 105.431 1322.16 110.066 1327.94 115.993C1333.72 121.926 1338.22 128.822 1341.42 136.681C1344.63 144.546 1346.24 152.967 1346.24 161.952C1346.24 170.941 1344.63 179.363 1341.42 187.223C1338.22 195.087 1333.72 201.988 1327.94 207.931C1322.16 213.863 1315.39 218.493 1307.61 221.827C1299.83 225.155 1291.37 226.827 1282.24 226.827ZM1282.47 207.327C1288.56 207.327 1294.22 206.202 1299.42 203.952C1304.64 201.702 1309.22 198.535 1313.15 194.452C1317.08 190.358 1320.13 185.546 1322.3 180.014C1324.47 174.473 1325.55 168.452 1325.55 161.952C1325.55 155.452 1324.47 149.462 1322.3 143.973C1320.13 138.473 1317.08 133.681 1313.15 129.598C1309.22 125.504 1304.64 122.316 1299.42 120.035C1294.22 117.743 1288.56 116.598 1282.47 116.598C1276.37 116.598 1270.68 117.743 1265.42 120.035C1260.17 122.316 1255.58 125.504 1251.65 129.598C1247.72 133.681 1244.65 138.473 1242.44 143.973C1240.25 149.462 1239.15 155.452 1239.15 161.952C1239.15 168.452 1240.25 174.473 1242.44 180.014C1244.65 185.546 1247.72 190.358 1251.65 194.452C1255.58 198.535 1260.17 201.702 1265.42 203.952C1270.68 206.202 1276.37 207.327 1282.47 207.327Z" fill="#003872"/>
<path d="M1381.97 223.327H1361.28V53.6602H1381.97V223.327Z" fill="#003872"/>
<mask id="mask1_2279_1749" style="mask-type:luminance" maskUnits="userSpaceOnUse" x="1403" y="49" width="30" height="175">
<path d="M1403 49.1614H1432.33V223.667H1403V49.1614Z" fill="white"/>
</mask>
<g mask="url(#mask1_2279_1749)">
<path d="M1417.61 76.6393C1413.36 76.6393 1409.97 75.3633 1407.45 72.806C1404.92 70.2383 1403.66 67.1081 1403.66 63.4102C1403.66 59.8008 1404.92 56.7122 1407.45 54.1393C1409.97 51.5716 1413.41 50.2852 1417.74 50.2852C1422.14 50.2852 1425.6 51.5716 1428.13 54.1393C1430.66 56.7122 1431.93 59.8008 1431.93 63.4102C1431.93 67.1081 1430.66 70.2383 1428.13 72.806C1425.6 75.3633 1422.1 76.6393 1417.61 76.6393ZM1428.07 223.327H1407.38V100.598H1428.07V223.327Z" fill="#003872"/>
</g>
<path d="M1474.17 223.327H1453.49V100.598H1473.34V124.285C1475.67 118.993 1479.06 114.306 1483.51 110.223C1487.97 106.129 1493.2 102.921 1499.22 100.598C1505.23 98.2643 1511.68 97.0977 1518.59 97.0977C1534.87 97.0977 1547.22 102.134 1555.63 112.202C1564.06 122.275 1568.28 137.134 1568.28 156.785V223.327H1547.59V157.139C1547.59 143.03 1544.54 132.723 1538.44 126.223C1532.35 119.723 1523.97 116.473 1513.3 116.473C1508.16 116.473 1503.24 117.441 1498.55 119.368C1493.85 121.285 1489.68 124.092 1486.03 127.785C1482.39 131.483 1479.5 135.941 1477.36 141.16C1475.24 146.368 1474.17 152.259 1474.17 158.827V223.327Z" fill="#003872"/>
<path d="M1704.98 158.952C1704.98 159.993 1704.96 161.098 1704.91 162.264C1704.87 163.421 1704.77 165.118 1704.62 167.368H1602.81C1603.7 175.551 1606.11 182.655 1610.04 188.681C1613.97 194.697 1618.9 199.327 1624.83 202.577C1630.77 205.827 1637.11 207.452 1643.85 207.452C1652.11 207.452 1659.17 205.671 1665.02 202.098C1670.88 198.53 1675.17 193.296 1677.89 186.389H1701.12C1699.36 192.004 1696.73 197.259 1693.25 202.16C1689.76 207.051 1685.54 211.322 1680.6 214.973C1675.67 218.613 1670.13 221.473 1664 223.556C1657.86 225.65 1651.3 226.702 1644.33 226.702C1635.42 226.702 1627.19 225.03 1619.6 221.702C1612.02 218.368 1605.4 213.738 1599.75 207.806C1594.09 201.863 1589.7 194.983 1586.56 187.16C1583.44 179.342 1581.87 170.941 1581.87 161.952C1581.87 152.967 1583.44 144.566 1586.56 136.743C1589.7 128.926 1594.09 122.051 1599.75 116.118C1605.4 110.176 1612.02 105.525 1619.6 102.16C1627.19 98.7852 1635.42 97.0977 1644.33 97.0977C1653.15 97.0977 1661.27 98.7435 1668.69 102.035C1676.11 105.327 1682.54 109.863 1687.96 115.639C1693.37 121.405 1697.56 128.004 1700.52 135.431C1703.49 142.848 1704.98 150.691 1704.98 158.952ZM1603.79 149.077H1683.79C1683.47 144.743 1682.21 140.613 1680 136.681C1677.8 132.754 1674.9 129.285 1671.29 126.285C1667.67 123.275 1663.52 120.905 1658.83 119.181C1654.13 117.462 1649.19 116.598 1643.98 116.598C1637.88 116.598 1632.06 117.842 1626.52 120.327C1620.99 122.816 1616.22 126.467 1612.21 131.285C1608.19 136.092 1605.38 142.025 1603.79 149.077Z" fill="#003872"/>
</g>
<mask id="mask2_2279_1749" style="mask-type:luminance" maskUnits="userSpaceOnUse" x="419" y="286" width="1035" height="90">
<path d="M1453.67 286.333H419V375.667H1453.67V286.333Z" fill="white"/>
</mask>
<g mask="url(#mask2_2279_1749)">
<path d="M435.642 357.036H429.829V290.119H456.684C459.809 290.119 462.668 290.651 465.267 291.703C467.876 292.744 470.142 294.224 472.059 296.14C473.986 298.057 475.475 300.317 476.517 302.911C477.569 305.51 478.1 308.349 478.1 311.432C478.1 314.546 477.569 317.406 476.517 320.015C475.475 322.614 474.006 324.88 472.121 326.807C470.23 328.724 467.986 330.213 465.392 331.265C462.809 332.307 459.954 332.828 456.829 332.828H435.642V357.036ZM435.642 295.432V327.557H456.684C459.668 327.531 462.335 326.823 464.684 325.432C467.027 324.031 468.881 322.109 470.246 319.661C471.605 317.218 472.288 314.474 472.288 311.432C472.288 309.198 471.892 307.119 471.1 305.203C470.319 303.286 469.215 301.593 467.788 300.119C466.355 298.635 464.684 297.484 462.767 296.661C460.85 295.843 458.756 295.432 456.496 295.432H435.642Z" fill="black"/>
<path d="M490.509 357.036H484.697V290.119H512.738C515.848 290.119 518.707 290.609 521.322 291.578C523.931 292.536 526.197 293.911 528.113 295.703C530.03 297.494 531.509 299.64 532.551 302.14C533.603 304.63 534.134 307.411 534.134 310.494C534.134 313.869 533.488 316.901 532.197 319.578C530.905 322.244 529.093 324.463 526.759 326.224C524.426 327.974 521.718 329.177 518.634 329.828L535.572 357.036H528.78L512.634 330.661C512.343 330.692 512.051 330.703 511.759 330.703C511.468 330.703 511.155 330.703 510.822 330.703H490.509V357.036ZM490.509 295.432V325.64H512.738C515.723 325.614 518.389 324.974 520.738 323.724C523.082 322.474 524.936 320.718 526.301 318.453C527.66 316.192 528.343 313.552 528.343 310.536C528.343 307.593 527.645 304.984 526.259 302.703C524.884 300.411 523.009 298.63 520.634 297.349C518.259 296.073 515.561 295.432 512.551 295.432H490.509Z" fill="black"/>
<path d="M573.57 358.265C569.653 358.265 565.924 357.677 562.382 356.515C558.841 355.349 555.58 353.713 552.612 351.599C549.653 349.489 547.091 346.989 544.924 344.099C542.757 341.213 541.075 338.031 539.882 334.557C538.685 331.073 538.091 327.401 538.091 323.536C538.091 319.635 538.685 315.948 539.882 312.474C541.075 308.989 542.757 305.796 544.924 302.89C547.091 299.989 549.653 297.484 552.612 295.369C555.58 293.244 558.841 291.599 562.382 290.432C565.924 289.265 569.653 288.682 573.57 288.682C577.497 288.682 581.237 289.265 584.778 290.432C588.32 291.599 591.575 293.244 594.549 295.369C597.518 297.484 600.08 299.989 602.237 302.89C604.403 305.796 606.08 308.989 607.278 312.474C608.487 315.948 609.091 319.635 609.091 323.536C609.091 327.401 608.487 331.073 607.278 334.557C606.08 338.031 604.403 341.213 602.237 344.099C600.08 346.989 597.518 349.489 594.549 351.599C591.575 353.713 588.32 355.349 584.778 356.515C581.237 357.677 577.497 358.265 573.57 358.265ZM573.57 352.807C576.846 352.807 579.966 352.328 582.924 351.369C585.893 350.401 588.617 349.036 591.091 347.286C593.575 345.526 595.726 343.421 597.549 340.974C599.367 338.531 600.778 335.843 601.778 332.911C602.778 329.968 603.278 326.843 603.278 323.536C603.278 320.218 602.778 317.078 601.778 314.119C600.778 311.151 599.367 308.448 597.549 306.015C595.726 303.588 593.575 301.484 591.091 299.703C588.617 297.911 585.893 296.531 582.924 295.557C579.966 294.588 576.846 294.099 573.57 294.099C570.278 294.099 567.143 294.588 564.174 295.557C561.216 296.531 558.507 297.911 556.049 299.703C553.591 301.484 551.445 303.588 549.612 306.015C547.789 308.448 546.382 311.151 545.382 314.119C544.382 317.078 543.882 320.218 543.882 323.536C543.882 326.843 544.382 329.968 545.382 332.911C546.382 335.843 547.789 338.531 549.612 340.974C551.445 343.421 553.596 345.526 556.07 347.286C558.539 349.036 561.247 350.401 564.195 351.369C567.153 352.328 570.278 352.807 573.57 352.807Z" fill="black"/>
<path d="M623.712 357.036H617.899V290.119H661.254V295.536H623.712V322.494H656.462V327.557H623.712V357.036Z" fill="black"/>
<path d="M674.348 357.036H668.536V290.119H674.348V357.036Z" fill="black"/>
<path d="M709.237 357.036H703.424V295.432H681.195V290.119H731.528V295.432H709.237V357.036Z" fill="black"/>
<path d="M792.245 357.036H786.037L778.807 340.119H742.557L735.307 357.036H729.162L757.807 290.119H763.557L792.245 357.036ZM760.453 298.182L744.703 335.036H776.641L760.912 298.182L760.703 297.453H760.662L760.453 298.182Z" fill="black"/>
<path d="M828.118 357.036H797.222V290.119H825.306C827.873 290.119 830.254 290.552 832.452 291.411C834.644 292.26 836.556 293.453 838.181 294.994C839.806 296.536 841.066 298.359 841.972 300.453C842.873 302.552 843.327 304.849 843.327 307.349C843.327 309.448 842.931 311.448 842.139 313.349C841.347 315.255 840.254 316.927 838.868 318.369C837.478 319.817 835.894 320.927 834.118 321.703C836.618 322.359 838.853 323.51 840.827 325.161C842.811 326.802 844.389 328.781 845.556 331.099C846.722 333.406 847.306 335.901 847.306 338.578C847.306 341.369 846.785 343.901 845.743 346.161C844.712 348.427 843.306 350.369 841.514 351.994C839.733 353.619 837.691 354.869 835.389 355.744C833.097 356.609 830.67 357.036 828.118 357.036ZM803.077 295.286V320.036H825.077C827.368 320.036 829.436 319.489 831.285 318.39C833.144 317.296 834.629 315.802 835.743 313.911C836.853 312.026 837.41 309.932 837.41 307.64C837.41 305.338 836.858 303.26 835.764 301.411C834.665 299.567 833.181 298.088 831.306 296.974C829.441 295.849 827.379 295.286 825.118 295.286H803.077ZM803.077 324.807V351.724H827.722C830.248 351.724 832.535 351.13 834.577 349.932C836.629 348.739 838.264 347.114 839.472 345.057C840.691 343.005 841.306 340.713 841.306 338.182C841.306 336.349 840.957 334.619 840.264 332.994C839.582 331.369 838.623 329.948 837.389 328.724C836.165 327.489 834.743 326.531 833.118 325.849C831.493 325.156 829.743 324.807 827.868 324.807H803.077Z" fill="black"/>
<path d="M861.887 357.036H856.075V290.119H861.887V357.036Z" fill="black"/>
<path d="M916.297 357.036H876.109V290.119H881.922V351.682H916.297V357.036Z" fill="black"/>
<path d="M928.278 357.036H922.465V290.119H928.278V357.036Z" fill="black"/>
<path d="M963.166 357.036H957.354V295.432H935.125V290.119H985.458V295.432H963.166V357.036Z" fill="black"/>
<path d="M1016.9 357.036H1011.09V331.244L983.487 290.119H990.466L1013.95 325.994H1014.05L1037.42 290.119H1044.45L1016.84 331.244L1016.9 357.036Z" fill="black"/>
<path d="M1075.03 357.036H1069.22V290.119H1074.18L1101.55 325.994L1101.59 325.932L1128.8 290.119H1133.93V357.036H1128.11V299.661L1102.47 333.328H1100.51L1075.03 299.661V357.036Z" fill="black"/>
<path d="M1202.02 357.036H1195.81L1188.58 340.119H1152.33L1145.08 357.036H1138.94L1167.58 290.119H1173.33L1202.02 357.036ZM1170.23 298.182L1154.48 335.036H1186.41L1170.69 298.182L1170.48 297.453H1170.44L1170.23 298.182Z" fill="black"/>
<path d="M1212.81 357.036H1207V290.119H1211.66L1256.83 347.14L1256.89 347.203V290.119H1262.68V357.036H1257.87L1212.85 300.203H1212.81V357.036Z" fill="black"/>
<path d="M1306.4 358.224C1302.48 358.224 1298.76 357.645 1295.25 356.494C1291.75 355.343 1288.55 353.713 1285.67 351.599C1282.78 349.489 1280.28 346.989 1278.17 344.099C1276.05 341.213 1274.42 338.031 1273.25 334.557C1272.09 331.073 1271.5 327.401 1271.5 323.536C1271.5 319.635 1272.09 315.932 1273.25 312.432C1274.42 308.932 1276.05 305.744 1278.17 302.869C1280.28 299.984 1282.78 297.484 1285.67 295.369C1288.55 293.244 1291.75 291.599 1295.25 290.432C1298.76 289.265 1302.48 288.682 1306.4 288.682C1309.94 288.682 1313.37 289.177 1316.69 290.161C1320.02 291.151 1323.09 292.578 1325.9 294.453C1328.7 296.317 1331.12 298.588 1333.15 301.265C1335.19 303.932 1336.7 306.974 1337.69 310.39H1331.77C1330.49 306.974 1328.6 304.057 1326.09 301.64C1323.59 299.213 1320.64 297.349 1317.25 296.057C1313.88 294.755 1310.2 294.099 1306.23 294.099C1302.2 294.099 1298.44 294.843 1294.94 296.328C1291.45 297.802 1288.39 299.864 1285.75 302.515C1283.11 305.171 1281.04 308.286 1279.54 311.869C1278.05 315.442 1277.31 319.328 1277.31 323.536C1277.31 327.76 1278.05 331.656 1279.54 335.224C1281.04 338.781 1283.11 341.869 1285.75 344.494C1288.39 347.119 1291.45 349.161 1294.94 350.619C1298.44 352.078 1302.2 352.807 1306.23 352.807C1310.53 352.807 1314.36 352.13 1317.71 350.765C1321.05 349.406 1323.89 347.557 1326.21 345.224C1328.54 342.89 1330.37 340.244 1331.69 337.286C1333.02 334.317 1333.82 331.239 1334.09 328.057H1306.04V322.744H1340.19C1340.19 326.51 1339.71 330.14 1338.75 333.64C1337.8 337.13 1336.4 340.359 1334.54 343.328C1332.69 346.302 1330.41 348.906 1327.69 351.14C1324.97 353.364 1321.82 355.099 1318.27 356.349C1314.72 357.593 1310.76 358.224 1306.4 358.224Z" fill="black"/>
<path d="M1392.75 357.036H1348.96V290.119H1392.31V295.536H1354.77V320.432H1387.52V325.494H1354.77V351.682H1392.75V357.036Z" fill="black"/>
<path d="M1406.59 357.036H1400.77V290.119H1428.82C1431.92 290.119 1434.78 290.609 1437.4 291.578C1440.01 292.536 1442.27 293.911 1444.19 295.703C1446.11 297.494 1447.59 299.64 1448.63 302.14C1449.68 304.63 1450.21 307.411 1450.21 310.494C1450.21 313.869 1449.57 316.901 1448.27 319.578C1446.98 322.244 1445.17 324.463 1442.84 326.224C1440.5 327.974 1437.79 329.177 1434.71 329.828L1451.65 357.036H1444.86L1428.71 330.661C1428.42 330.692 1428.13 330.703 1427.84 330.703C1427.54 330.703 1427.23 330.703 1426.9 330.703H1406.59V357.036ZM1406.59 295.432V325.64H1428.82C1431.8 325.614 1434.47 324.974 1436.82 323.724C1439.16 322.474 1441.01 320.718 1442.38 318.453C1443.74 316.192 1444.42 313.552 1444.42 310.536C1444.42 307.593 1443.72 304.984 1442.34 302.703C1440.96 300.411 1439.09 298.63 1436.71 297.349C1434.34 296.073 1431.64 295.432 1428.63 295.432H1406.59Z" fill="black"/>
</g>
<path fill-rule="evenodd" clip-rule="evenodd" d="M209.996 33.6041C205.347 33.939 202 35.1294 196.199 38.4405C194.711 39.2961 189.914 43.2768 189.914 43.6488C189.914 43.8348 189.244 44.8765 188.463 45.9553C184.782 50.8661 183.294 54.9955 182.959 61.0595C182.736 65.4122 183.22 65.7842 182.104 65.5982C182.104 65.5982 180.542 65.5982 180.431 65.5982H178.943C178.943 65.5982 177.121 65.8586 176.712 66.0818C176.303 66.3051 175.224 66.5283 174.257 66.6027C173.327 66.6399 171.282 67.1235 169.72 67.6443C168.121 68.1652 166.41 68.5744 165.927 68.5744C165.406 68.5744 164.142 68.9092 163.063 69.3184C161.985 69.7277 160.869 70.0625 160.609 70.0625C160.348 70.0625 159.233 70.4717 158.154 70.9553C157.113 71.439 154.547 72.369 152.501 73.0015C150.419 73.6339 147.109 74.9732 145.064 75.9777C143.055 76.9449 138.444 79.2143 134.874 80.9628C131.304 82.7485 127.51 84.7946 126.432 85.5759C124.238 87.2128 115.982 92.6443 114.271 93.5744C113.639 93.9464 112.188 94.9881 111.073 95.9181C109.957 96.8482 107.688 98.6339 106.052 99.8988C99.5067 104.958 83.9988 121.179 80.7633 126.424C80.3542 127.019 79.4245 128.247 78.6435 129.103C77.8625 129.996 77.2303 130.851 77.2303 131.074C77.2303 131.26 76.5609 132.414 75.7427 133.567C73.8461 136.283 71.28 140.189 70.5362 141.454C70.2387 141.975 69.309 143.5 68.4536 144.839C66.4454 148.001 65.5901 149.75 61.9827 157.935C60.3092 161.692 58.5613 165.598 58.0778 166.603C57.5572 167.644 57.1481 168.723 57.1481 169.058C57.1481 169.356 56.8506 170.286 56.4415 171.104C56.0696 171.885 55.6233 173.15 55.4746 173.857C55.1771 175.382 54.3217 178.173 53.8011 179.251C52.4622 182.19 49.4127 196.96 48.0367 207.153C47.5904 210.464 47.0698 224.341 47.2185 229.289C47.4417 237.51 48.8177 252.354 49.4871 253.396C49.7102 253.768 51.0862 260.167 51.6069 263.329C51.83 264.557 52.3879 266.714 52.8713 268.165C53.3176 269.579 53.8382 271.327 53.9498 271.96C54.0614 272.629 54.5076 273.932 54.9167 274.824C55.3258 275.754 55.8837 277.391 56.1812 278.47C56.9993 281.558 58.5985 285.762 60.1604 288.998C60.9786 290.598 61.6108 292.161 61.6108 292.421C61.6108 292.905 62.6521 294.988 64.8091 298.857C65.3297 299.787 66.3338 301.685 67.0776 303.135C69.2718 307.525 69.4949 307.935 70.1643 308.716C71.0569 309.757 73.8833 314.408 73.8833 314.78C73.8833 315.747 82.6971 327.391 88.164 333.641C97.3497 344.207 115.684 360.092 122.601 363.515C123.531 363.961 125.204 365.003 126.32 365.784C127.436 366.603 129.444 367.83 130.783 368.537C132.122 369.281 134.725 370.695 136.547 371.737C138.407 372.741 140.824 374.043 141.94 374.564C146.105 376.61 148.485 377.689 149.749 378.135C150.456 378.396 152.241 379.14 153.729 379.847C155.216 380.516 156.592 381.074 156.815 381.074C157.336 381.074 164.625 383.567 165.369 384.013C166.261 384.497 172.361 386.32 174.257 386.618C175.187 386.804 177.976 387.362 180.431 387.882C191.327 390.263 196.162 391.045 201.814 391.305C203.971 391.417 206.909 391.677 208.323 391.9C211.372 392.384 233.686 391.751 235.471 391.156C236.103 390.97 238.334 390.598 240.491 390.375C242.648 390.152 245.921 389.705 247.743 389.408C254.549 388.292 272.511 383.232 277.681 380.963C278.61 380.554 280.395 379.847 281.66 379.4C282.961 378.917 285.044 377.987 286.308 377.28C287.61 376.573 290.734 375.01 293.3 373.82C295.866 372.629 298.469 371.29 299.064 370.844C299.697 370.36 301.854 369.132 303.899 368.054C305.944 367.012 308.027 365.747 308.548 365.301C309.068 364.817 310.705 363.664 312.229 362.696C313.754 361.729 316.618 359.683 318.626 358.158C320.634 356.632 322.419 355.405 322.568 355.405C322.754 355.405 323.647 354.661 324.539 353.731C325.432 352.801 326.324 352.057 326.547 352.057C326.733 352.057 327.812 351.201 328.965 350.196C330.117 349.155 332.832 346.737 334.989 344.802C339.601 340.71 348.972 330.554 351.167 327.28C351.687 326.499 352.691 325.234 353.361 324.527C354.03 323.82 354.625 323.039 354.7 322.853C354.774 322.629 356.262 320.509 358.009 318.091C359.757 315.673 361.468 313.143 361.84 312.51C362.212 311.841 362.993 310.725 363.588 309.981C364.146 309.274 364.927 308.083 365.336 307.376C365.708 306.67 366.489 305.405 367.009 304.586C367.567 303.731 368.497 301.982 369.129 300.68C369.761 299.378 371.249 296.365 372.476 294.021C375.377 288.44 377.348 284.162 377.348 283.53C377.348 283.232 377.72 282.19 378.203 281.149C378.687 280.144 379.43 278.247 379.914 276.908C380.36 275.568 380.992 273.82 381.327 273.001C381.625 272.183 381.959 271.067 382.034 270.546C382.145 269.988 382.852 267.533 383.67 265.077C384.451 262.585 385.232 259.943 385.344 259.162C385.753 256.67 386.348 254.065 386.868 252.429C387.166 251.573 387.389 250.122 387.389 249.266C387.389 247.778 387.538 247.555 391.071 244.17C394.567 240.821 398.174 236.506 398.174 235.762C398.174 235.576 398.732 234.088 399.438 232.451C401.223 228.21 401.67 225.978 401.558 221.104C401.447 214.222 399.699 209.385 394.976 203.135C391.963 199.118 383.819 193.612 379.988 193.016C379.245 192.868 378.278 192.644 377.794 192.421C376.53 191.937 366.303 191.9 364.332 192.421C363.402 192.682 361.542 193.463 360.204 194.17C358.828 194.876 357.452 195.435 357.154 195.435C356.857 195.435 355.778 196.104 354.811 196.923C353.807 197.741 352.803 198.411 352.58 198.411C351.724 198.411 346.964 203.879 345.774 206.223C345.105 207.562 344.361 208.865 344.138 209.162C343.915 209.423 343.692 209.832 343.617 210.092C343.58 210.315 343.134 211.766 342.65 213.292C341.125 217.942 340.568 225.866 341.646 227.243C341.795 227.429 342.13 228.359 342.39 229.289C343.803 234.683 346.518 239.557 349.716 242.421C351.985 244.504 351.985 244.616 351.129 249.899C349.865 257.339 349.977 256.781 347.225 266.305C346.555 268.537 345.774 270.658 345.514 270.993C345.216 271.29 344.993 271.737 344.993 271.923C344.993 272.146 344.398 273.783 343.654 275.643C342.911 277.466 342.241 279.251 342.167 279.661C342.055 280.368 340.382 283.902 339.117 286.208C338.708 286.915 337.63 289.147 336.663 291.119C335.733 293.091 334.357 295.509 333.613 296.439C332.907 297.406 331.791 299.118 331.159 300.271C330.006 302.466 329.634 302.987 325.023 309.013C323.535 310.911 322.308 312.622 322.308 312.771C322.308 313.589 306.168 330.368 303.192 332.637C298.693 336.097 296.015 338.292 295.42 338.961C295.048 339.371 293.635 340.338 292.333 341.119C290.994 341.9 289.284 343.091 288.503 343.76C285.862 345.993 272.437 353.656 270.354 354.103C269.982 354.177 267.863 354.996 265.594 355.963C263.363 356.93 259.681 358.381 257.412 359.162C255.181 359.981 252.838 360.874 252.206 361.171C250.867 361.766 245.103 363.254 239.747 364.333C237.591 364.78 235.508 365.301 235.099 365.449C234.095 365.933 226.806 366.937 226.211 366.714C225.95 366.603 225.281 366.714 224.723 366.937C223.719 367.31 212.488 367.868 206.463 367.868C203.451 367.83 198.17 367.384 189.356 366.305C186.716 366.007 183.889 365.673 183.145 365.635C181.323 365.487 176.563 364.445 173.737 363.589C168.604 361.99 166.336 361.357 165.704 361.357C164.774 361.357 158.266 359.199 157.299 358.53C156.853 358.269 156.183 358.009 155.848 358.009C155.067 358.009 149.043 355.479 148.262 354.81C147.964 354.586 145.621 353.396 143.055 352.243C140.489 351.052 138.146 349.862 137.849 349.601C137.254 349.118 133.795 347.109 130.337 345.249C129.184 344.616 127.101 343.277 125.725 342.235C124.349 341.193 122.713 340.04 122.081 339.631C120.295 338.552 115.126 334.423 113.713 332.935C113.006 332.19 112.188 331.595 111.928 331.595C111.407 331.595 96.5687 316.826 96.5687 316.305C96.5687 316.119 95.6762 314.966 94.5605 313.775C91.0275 309.943 83.3293 299.118 82.3996 296.737C82.2137 296.253 81.0608 294.244 79.8336 292.272C78.6063 290.338 77.6022 288.589 77.6022 288.44C77.6022 288.068 73.7345 280.442 73.251 279.772C73.0279 279.549 72.5073 278.321 72.061 277.094C71.5775 275.866 70.9081 274.192 70.5362 273.373C70.1271 272.555 69.1602 269.802 68.3049 267.235C67.4495 264.668 66.6314 262.324 66.4826 262.027C66.0363 261.208 64.2512 254.847 64.0281 253.396C63.8793 252.168 62.7637 246.96 62.0199 243.798C61.8339 242.868 61.462 240.784 61.2389 239.147C61.0158 237.51 60.6439 234.981 60.4207 233.567C59.9373 230.033 59.9745 206.967 60.4951 202.28C60.9414 198.187 61.6852 193.537 62.3174 191.156C62.5033 190.338 62.8009 188.775 62.9124 187.659C63.0612 186.543 63.4703 184.683 63.8422 183.567C64.2512 182.414 64.7347 180.405 64.9578 179.103C65.181 177.801 65.5157 176.461 65.7016 176.126C65.8504 175.792 66.2967 174.452 66.6685 173.113C67.0404 171.774 67.4495 170.509 67.6355 170.286C67.8214 170.025 68.3793 168.351 68.8999 166.565C69.4206 164.743 69.9784 163.068 70.1272 162.882C70.2759 162.659 70.7222 161.655 71.0941 160.65C71.9122 158.455 76.3006 149.452 78.346 145.769C79.1641 144.318 80.3914 142.049 81.098 140.71C81.8046 139.371 82.7715 137.771 83.2922 137.176C83.7756 136.58 84.2963 135.799 84.4078 135.427C84.8169 134.311 89.7631 127.243 90.7672 126.275C91.2879 125.754 91.7341 125.196 91.7341 125.01C91.7341 124.824 92.7382 123.597 93.9655 122.257C95.1927 120.918 96.1968 119.653 96.1968 119.504C96.1968 118.76 114.196 100.568 114.94 100.568C115.126 100.568 116.242 99.6756 117.432 98.5967C118.622 97.555 120.333 96.067 121.188 95.3229C123.196 93.6116 130.783 88.2916 131.192 88.2916C131.378 88.2916 132.27 87.6964 133.237 86.9896C134.167 86.2827 135.097 85.6875 135.283 85.6875C135.469 85.6875 136.324 85.2411 137.217 84.683C138.072 84.1622 139.783 83.1577 141.01 82.5253C142.237 81.8556 143.911 80.8884 144.692 80.3303C145.51 79.7723 146.588 79.2515 147.109 79.1027C147.63 78.9911 148.336 78.6562 148.634 78.3958C149.266 77.875 151.72 76.7589 152.725 76.5729C153.059 76.4985 154.212 76.0149 155.328 75.494C156.443 74.9732 157.522 74.5268 157.708 74.5268C157.931 74.5268 159.27 73.9315 160.72 73.1875C162.133 72.4806 164.29 71.625 165.555 71.2902C168.679 70.5089 173.067 69.1324 174.852 68.3512C175.67 67.9792 176.526 67.8303 176.898 67.6443C177.27 67.4583 177.865 67.2971 178.013 67.2723C178.279 67.2281 178.571 67.0863 178.943 67.0863C179.315 67.0863 180.059 67.0863 180.059 67.0863L181.546 66.9003C181.546 66.9003 183.071 67.1607 183.331 69.8393C183.592 72.4434 186.046 77.6146 188.835 81.3348C189.654 82.3765 190.286 83.3437 190.286 83.4926C190.286 83.9762 195.753 88.1428 197.724 89.1845C198.839 89.7797 200.029 90.4866 200.327 90.7098C200.624 90.9702 201.628 91.3794 202.558 91.6399C203.488 91.9003 204.566 92.2723 204.975 92.4583C205.385 92.6815 207.951 93.0164 210.665 93.1652C217.174 93.5744 221.078 92.6815 228.516 89.0729C231.306 87.7336 238.223 80.6652 238.26 79.1399C238.26 78.9167 238.669 78.0982 239.19 77.3914C241.123 74.4896 242.462 69.5416 242.611 64.4821C242.797 59.7946 242.685 59.0506 241.272 54.2515C238.929 46.3274 233.611 40.1518 225.987 36.5059C222.901 35.0179 216.318 33.1949 214.459 33.3065C213.938 33.3065 211.93 33.4553 209.996 33.6041Z" fill="url(#paint0_linear_2279_1749)"/>
<path fill-rule="evenodd" clip-rule="evenodd" d="M271.024 56.8928C267.491 57.6368 262.991 60.2038 259.904 63.2916C258.007 65.1889 254.958 69.616 254.102 71.7365C253.582 73.0014 252.764 78.3213 252.764 80.5535C252.764 84.1621 254.809 91.3794 256.074 92.1606C256.259 92.3094 256.78 93.1279 257.226 94.0579C257.673 94.988 258.565 96.1041 259.197 96.5505C259.867 96.9969 260.983 97.9642 261.689 98.7082C262.544 99.5267 264.404 100.606 266.896 101.684C270.8 103.359 270.8 103.359 276.379 103.359C280.879 103.359 282.143 103.247 282.887 102.763C283.408 102.428 284.709 101.833 285.751 101.461C286.829 101.089 288.503 100.159 289.47 99.3779C290.474 98.5966 291.589 97.8154 292.036 97.6294C292.445 97.4434 293.077 96.8481 293.412 96.3273C293.783 95.8065 294.267 95.36 294.527 95.36C295.122 95.36 298.73 97.741 300.18 99.0803C300.812 99.6755 301.965 100.494 302.746 100.94C303.564 101.387 304.977 102.391 305.907 103.21C306.874 103.991 309.031 105.851 310.779 107.302C319.518 114.631 330.638 126.424 334.134 132.042C334.803 133.083 335.659 134.237 336.068 134.609C336.477 134.981 336.811 135.464 336.811 135.725C336.811 135.948 337.555 137.138 338.448 138.366C340.382 141.045 340.233 141.937 337.518 144.207C335.659 145.695 333.055 150.42 332.2 153.768C331.902 154.884 331.642 157.637 331.642 159.832C331.605 163.664 331.642 163.998 332.907 166.9C333.65 168.574 334.32 170.248 334.394 170.583C334.654 171.811 338.82 177.205 339.526 177.205C339.749 177.205 340.716 177.875 341.683 178.693C342.799 179.623 344.919 180.777 347.187 181.67C350.869 183.158 350.869 183.158 355.852 183.046C359.683 182.934 361.059 182.786 362.026 182.265C362.695 181.893 364.034 181.335 365.001 181C367.939 179.921 371.621 176.982 374.484 173.336C375.079 172.629 376.232 170.323 377.087 168.202C378.649 164.37 378.649 164.37 378.649 159.534C378.649 154.698 378.649 154.698 377.05 150.829C376.195 148.708 375.042 146.402 374.447 145.732C372.03 142.719 370.914 141.491 370.579 141.491C370.356 141.491 369.352 140.821 368.348 140.003C367.307 139.184 366.265 138.515 366.005 138.515C365.745 138.515 364.369 137.994 362.956 137.324C360.575 136.208 360.166 136.171 355.964 136.134C353.509 136.134 350.757 136.208 349.828 136.283C348.154 136.469 348.154 136.469 345.365 132.339C343.84 130.033 342.018 127.503 341.311 126.684C340.642 125.866 340.159 125.085 340.196 124.973C340.27 124.862 339.489 123.894 338.448 122.815C337.444 121.737 335.919 119.988 335.138 118.984C332.349 115.449 320.634 103.805 316.171 100.196C313.717 98.2246 311.374 96.2157 311.002 95.7692C310.593 95.36 310.184 94.988 310.035 94.988C309.663 94.988 303.155 90.7097 300.849 88.9612C298.655 87.2871 298.655 87.3243 299.511 83.7901C300.068 81.4091 300.068 80.9255 299.511 76.9448C298.73 71.5877 297.279 68.3883 293.858 64.5937C288.763 58.9761 284.003 56.744 276.825 56.5579C274.78 56.5207 272.176 56.6695 271.024 56.8928ZM280.73 65.8957C280.99 66.1562 281.399 66.3422 281.66 66.3422C283.185 66.3422 287.387 70.3228 289.321 73.5966C290.846 76.2008 290.846 76.2008 290.771 80.0698C290.66 84.1249 289.916 86.8035 288.428 88.1428C288.056 88.4776 287.722 88.9612 287.722 89.2216C287.722 89.6681 285.156 92.3094 284.97 92.0118C284.895 91.9002 283.928 92.421 282.85 93.1279C281.028 94.3184 280.544 94.43 277.495 94.616C272.065 94.9136 268.792 93.5371 264.962 89.2588C262.656 86.6547 262.098 85.1294 261.801 80.6279C261.578 76.796 261.578 76.796 262.842 74.3407C263.511 73.0014 264.59 71.2901 265.148 70.5832C266.412 69.0579 270.243 66.3794 272.102 65.7097C273.738 65.1517 280.098 65.2633 280.73 65.8957ZM359.646 145.62C365.336 147.443 367.455 149.676 369.278 155.851C370.505 160.018 370.505 159.534 369.129 163.998C368.05 167.495 367.865 167.793 365.596 170.025C363.365 172.183 362.918 172.443 359.571 173.485C355.629 174.713 355.481 174.713 350.2 173.225C348.08 172.667 347.485 172.257 345.142 169.951C341.014 165.859 339.601 160.613 341.311 155.777C341.72 154.586 342.092 153.396 342.167 153.21C342.39 152.019 344.51 149.155 345.997 148.001C347.82 146.588 352.617 144.876 355.592 144.504C355.815 144.467 357.637 144.988 359.646 145.62Z" fill="url(#paint1_linear_2279_1749)"/>
<path fill-rule="evenodd" clip-rule="evenodd" d="M200.327 100.159C199.806 100.457 196.571 100.829 191.401 101.164C190.063 101.275 188.24 101.573 187.311 101.871C186.381 102.168 184.707 102.503 183.592 102.615C182.476 102.726 180.059 103.284 178.199 103.88C176.377 104.475 173.774 105.219 172.435 105.591C168.195 106.744 166.299 107.339 165.741 107.823C165.443 108.046 163.361 108.976 161.092 109.832C156.406 111.618 150.456 114.519 149.006 115.71C148.448 116.194 147.221 116.863 146.328 117.272C145.398 117.644 143.613 118.76 142.386 119.691C141.159 120.621 140.043 121.402 139.894 121.402C139.745 121.402 138.965 121.96 138.146 122.667C137.328 123.374 136.101 124.229 135.394 124.564C130.783 126.722 113.044 144.505 110.478 149.49C110.18 150.085 109.399 151.164 108.73 151.796C108.097 152.466 107.688 153.024 107.837 153.024C107.986 153.024 106.721 155.033 105.085 157.525C103.412 159.981 101.18 163.813 100.102 166.008C99.0232 168.202 97.6844 170.621 97.1637 171.402C96.6431 172.183 96.1968 173.188 96.1968 173.597C96.1968 174.006 95.9737 174.638 95.6762 174.936C95.3787 175.271 94.5977 177.131 93.9655 179.066C93.2961 181 92.5895 182.935 92.3663 183.344C92.1432 183.753 91.9201 184.274 91.8829 184.534C91.7341 185.464 90.8788 187.808 90.5441 188.217C90.3953 188.478 89.9862 189.929 89.6887 191.491C88.9821 195.174 88.9077 195.286 86.1185 197.295C81.6558 200.494 78.6063 204.214 75.8171 209.758C73.8461 213.664 73.5114 215.449 73.437 221.476C73.3998 226.201 73.4742 226.722 74.5527 229.884C76.5981 235.911 77.6394 237.696 81.6558 241.975C85.1144 245.658 85.6723 246.067 89.2052 247.816C95.6762 250.941 98.6141 251.722 103.263 251.461C107.13 251.275 113.23 249.973 116.13 248.783C118.622 247.741 121.225 245.881 124.572 242.719C128.142 239.333 128.626 239.222 129.109 241.863C129.221 242.607 129.593 243.574 129.853 244.021C130.113 244.43 130.523 245.695 130.708 246.811C131.452 250.755 135.357 259.906 137.105 261.841C137.477 262.25 138.369 263.85 139.113 265.375C139.82 266.9 141.27 269.17 142.349 270.397C143.39 271.625 145.175 273.894 146.328 275.42C148.187 277.949 158.489 288.441 159.121 288.441C159.456 288.441 164.923 292.347 166.001 293.351C167.228 294.505 171.431 296.997 172.1 296.997C172.435 296.997 173.365 297.444 174.146 298.002C176.005 299.266 181.621 301.871 182.885 302.019C184.187 302.168 191.513 304.475 191.922 304.884C192.145 305.033 192.666 305.182 193.112 305.182C195.046 305.182 194.86 306.149 192.554 308.158C190.286 310.13 187.311 313.738 187.311 314.482C187.311 314.705 186.902 315.635 186.381 316.528C181.993 324.378 181.955 336.097 186.269 344.505C189.765 351.313 198.095 357.86 205.422 359.497C210.889 360.762 221.45 359.981 223.793 358.158C224.091 357.935 225.244 357.377 226.359 356.93C231.157 355.033 236.735 349.49 239.636 343.686C240.826 341.38 241.979 336.655 242.425 332.377C242.871 328.098 243.28 327.317 245.103 326.908C246.33 326.647 251.053 325.271 254.065 324.266C255.107 323.932 256.185 323.485 256.483 323.225C257.226 322.63 260.536 321.179 261.169 321.179C262.061 321.179 268.011 318.277 269.796 316.975C270.763 316.268 272.846 315.077 274.445 314.296C276.007 313.515 278.015 312.287 278.908 311.543C281.362 309.423 285.007 306.67 286.048 306.149C288.54 304.847 303.49 289.557 305.163 286.58C305.461 286.06 306.874 284.051 308.325 282.116C311.746 277.54 312.862 275.755 313.977 273.225C314.498 272.071 315.242 270.807 315.614 270.397C316.543 269.43 318.738 264.631 319.965 260.985C320.485 259.423 321.304 257.228 321.824 256.186C322.308 255.107 322.791 253.768 322.903 253.21C323.089 252.205 324.242 248.336 325.655 243.798C326.287 241.789 326.696 239.259 327.514 232.451C327.737 230.591 328.109 228.061 328.295 226.759C328.556 225.308 328.63 222.258 328.481 218.574C328.332 215.375 328.146 210.762 328.072 208.344C327.923 204.066 327.291 199.824 326.138 195.918C325.841 194.839 325.543 193.426 325.469 192.756C325.32 190.747 324.837 188.589 324.465 188.143C324.279 187.883 323.907 186.618 323.647 185.316C323.349 183.976 322.866 182.339 322.531 181.633C322.196 180.926 321.861 179.958 321.75 179.475C321.415 177.689 320.932 176.573 317.473 169.207C316.692 167.57 315.837 165.635 315.576 164.929C314.833 162.994 311.932 157.823 310.891 156.595C310.407 156 309.663 154.81 309.254 153.991C308.882 153.135 307.878 151.61 307.06 150.606C306.242 149.564 305.424 148.411 305.238 147.964C305.052 147.555 303.825 146.03 302.523 144.579C301.259 143.128 299.102 140.673 297.8 139.11C296.461 137.548 294.453 135.539 293.3 134.609C292.147 133.679 290.399 132.005 289.432 130.888C288.465 129.772 287.461 128.842 287.201 128.842C286.978 128.842 286.085 128.173 285.304 127.354C284.523 126.536 283.705 125.866 283.556 125.866C283.371 125.866 280.953 124.118 278.127 121.997C275.338 119.877 272.437 117.868 271.73 117.533C271.024 117.198 269.722 116.417 268.867 115.821C266.859 114.371 259.458 110.688 255.367 109.125C253.619 108.455 250.867 107.339 249.231 106.67C246.107 105.33 241.607 104.066 238.967 103.731C238.148 103.619 236.512 103.21 235.359 102.801C234.169 102.391 231.901 101.908 230.264 101.722C228.628 101.536 226.88 101.201 226.359 101.015C224.388 100.271 201.517 99.5269 200.327 100.159ZM227.289 125.866C228.107 126.052 229.632 126.238 230.636 126.238C232.793 126.238 237.442 127.131 239.45 127.912C240.194 128.21 242.239 128.805 243.95 129.214C245.698 129.661 247.743 130.33 248.524 130.702C249.305 131.112 250.272 131.446 250.644 131.446C251.053 131.446 251.908 131.744 252.541 132.153C253.173 132.525 254.772 133.232 256.111 133.716C257.45 134.162 259.012 134.869 259.569 135.278C260.127 135.65 260.797 136.022 261.057 136.06C261.801 136.208 264.032 137.436 265.817 138.738C266.784 139.445 267.714 140.003 267.937 140.003C268.16 140.003 268.978 140.561 269.796 141.194C270.615 141.863 273.069 143.76 275.3 145.397C277.495 146.997 280.507 149.49 281.957 150.903C283.371 152.317 285.528 154.214 286.718 155.144C287.87 156.074 288.837 157.005 288.837 157.191C288.837 157.525 292.37 161.915 295.383 165.263C297.093 167.198 299.25 170.286 299.25 170.807C299.25 170.993 299.622 171.625 300.069 172.22C300.552 172.778 301.296 174.08 301.742 175.085C302.226 176.089 303.118 177.652 303.713 178.582C304.345 179.475 304.829 180.442 304.829 180.665C304.829 180.926 305.387 182.005 306.056 183.046C306.725 184.125 307.506 185.688 307.767 186.58C308.027 187.473 308.548 188.999 308.92 190.04C309.291 191.045 310.035 193.388 310.556 195.249C311.114 197.071 311.858 199.415 312.267 200.457C312.676 201.461 313.196 203.582 313.419 205.107C313.643 206.633 314.052 208.827 314.312 209.944C315.242 213.701 315.8 228.694 315.242 233.567C314.349 241.231 313.196 247.778 312.267 250.866C312.043 251.573 311.783 252.726 311.709 253.396C311.523 254.735 309.924 259.646 309.106 261.469C308.808 262.064 307.804 264.333 306.874 266.491C305.907 268.612 304.048 272.332 302.746 274.75C301.445 277.131 300.366 279.252 300.366 279.475C300.366 279.661 299.325 281.186 298.06 282.86C296.759 284.534 295.197 286.729 294.565 287.734C293.932 288.738 292.705 290.449 291.85 291.528C289.879 294.095 278.127 305.256 275.226 307.302C274.036 308.158 271.953 309.795 270.652 310.911C269.313 312.064 267.044 313.552 265.594 314.259C264.144 314.929 262.47 315.933 261.875 316.417C260.313 317.719 255.032 320.323 251.797 321.402C250.309 321.885 248.041 322.778 246.702 323.411C242.834 325.234 242.276 324.973 240.9 320.621C239.041 314.78 237.181 311.915 232.719 308.083C230.971 306.595 230.748 306.26 231.194 305.777C231.454 305.442 231.975 305.182 232.384 305.182C232.793 305.182 233.872 304.847 234.839 304.475C237.107 303.545 243.652 301.461 244.322 301.461C244.842 301.461 250.123 298.857 254.884 296.29C258.751 294.207 264.181 290.375 266.226 288.366C267.193 287.399 268.458 286.32 269.015 285.948C270.987 284.72 274.705 281.298 275.524 279.921C276.007 279.177 277.606 277.205 279.168 275.569C280.693 273.894 282.441 271.625 283.036 270.546C283.631 269.43 284.858 267.384 285.825 265.97C288.205 262.436 288.242 262.324 290.213 257.935C291.18 255.777 292.147 253.768 292.408 253.47C293.114 252.615 295.048 246.737 295.531 244.095C295.792 242.83 296.089 241.566 296.238 241.38C296.61 240.933 297.502 236.692 297.354 236.171C297.205 235.725 298.023 229.512 298.507 226.945C298.99 224.601 298.99 219.951 298.507 217.347C298.321 216.231 297.986 213.255 297.8 210.688C296.982 200.271 291.441 184.646 285.193 175.345C281.362 169.653 280.209 168.054 278.833 166.603C278.09 165.784 276.825 164.296 276.044 163.329C273.776 160.502 262.433 150.792 261.354 150.792C261.057 150.792 259.941 150.122 258.863 149.304C257.784 148.485 256.78 147.816 256.669 147.816C256.557 147.816 255.33 147.071 253.917 146.141C252.503 145.211 251.239 144.467 251.09 144.467C250.941 144.467 249.454 143.835 247.78 143.016C246.144 142.235 244.247 141.491 243.578 141.38C242.946 141.231 241.681 140.822 240.789 140.412C239.896 140.003 238.334 139.445 237.256 139.11C236.215 138.813 235.024 138.403 234.615 138.18C234.206 137.957 232.31 137.622 230.413 137.362C228.479 137.138 226.731 136.804 226.508 136.618C225.578 135.874 206.166 135.204 204.529 135.874C203.971 136.097 202.149 136.357 200.513 136.469C198.876 136.543 196.719 136.878 195.678 137.213C194.674 137.51 192.777 137.957 191.476 138.18C190.174 138.366 188.426 138.887 187.645 139.259C186.864 139.668 185.86 140.003 185.414 140.003C184.968 140.003 184.298 140.226 184.001 140.524C183.666 140.784 181.993 141.491 180.245 142.086C177.418 143.016 174.666 144.356 168.195 148.002C167.117 148.597 165.48 149.787 164.551 150.606C163.621 151.424 161.464 153.098 159.753 154.326C157.001 156.335 147.927 164.929 146.96 166.454C145.993 168.016 141.717 173.82 140.601 175.085C139.894 175.829 139.336 176.647 139.336 176.871C139.336 177.131 138.741 178.21 137.998 179.326C136.287 181.93 132.754 189.333 132.084 191.826C131.787 192.905 131.118 195.025 130.56 196.551C130.039 198.076 129.518 200.085 129.407 201.015C129.258 202.801 128.366 204.512 127.808 204.177C127.101 203.731 124.461 199.564 124.461 198.894C124.461 198.522 124.721 197.183 125.056 195.993C125.353 194.765 125.688 193.202 125.8 192.533C126.134 189.891 132.159 176.387 134.836 172.183C135.357 171.365 136.138 170.063 136.51 169.281C136.919 168.537 137.774 167.235 138.481 166.454C139.15 165.635 139.708 164.854 139.708 164.668C139.708 164.482 140.638 163.292 141.754 162.064C142.869 160.799 143.799 159.646 143.799 159.46C143.799 158.716 157.41 145.621 159.605 144.281C160.274 143.872 162.133 142.533 163.77 141.342C166.261 139.445 180.542 131.819 181.621 131.819C181.769 131.819 182.402 131.558 182.959 131.26C184.112 130.665 185.972 130.07 188.798 129.438C189.505 129.252 190.844 128.805 191.736 128.396C192.666 127.987 194.414 127.54 195.641 127.466C196.905 127.354 198.133 127.094 198.356 126.871C198.616 126.685 199.546 126.536 200.401 126.536C201.294 126.573 202.744 126.387 203.674 126.164C207.356 125.234 223.682 125.048 227.289 125.866ZM222.492 145.211C223.012 145.435 224.649 145.695 226.099 145.807C227.587 145.955 230.004 146.476 231.491 146.96C233.016 147.444 234.764 147.89 235.396 147.964C236.066 148.076 237.107 148.411 237.702 148.708C238.334 149.043 239.115 149.304 239.487 149.304C239.896 149.304 242.909 150.755 246.181 152.503C249.491 154.289 252.392 155.74 252.578 155.777C253.284 155.888 254.809 156.856 256.111 157.935C256.817 158.567 258.677 159.981 260.202 161.097C262.991 163.143 273.962 174.229 273.962 174.973C273.962 175.457 278.238 181.781 278.982 182.414C279.28 182.674 279.54 183.083 279.54 183.344C279.54 183.827 283.408 192.124 283.854 192.533C284.114 192.793 284.97 195.063 286.048 198.411C286.383 199.341 286.718 200.755 286.792 201.536C286.904 202.354 287.164 203.21 287.35 203.433C287.87 204.066 288.465 207.153 288.651 210.092C288.763 211.543 289.023 214.222 289.246 216.082C289.804 220.36 289.693 225.234 289.023 229.363C288.726 231.149 288.391 233.79 288.242 235.316C288.131 236.804 287.833 238.515 287.536 239.147C286.829 240.71 286.234 242.719 286.048 244.207C285.825 245.807 283.408 252.317 282.738 253.061C282.18 253.731 278.796 260.241 278.796 260.688C278.796 260.874 278.35 261.506 277.829 262.176C277.309 262.808 275.561 265.152 273.962 267.421C272.363 269.653 270.726 271.848 270.317 272.257C268.272 274.415 261.317 281 261.094 281C260.945 281 260.164 281.558 259.309 282.265C257.859 283.418 253.322 286.58 251.537 287.622C245.177 291.305 237.776 294.616 235.099 294.951C234.69 294.988 232.607 295.472 230.45 295.993C221.116 298.299 213.566 298.82 204.976 297.778C202.744 297.518 200.55 297.295 200.141 297.332C199.732 297.332 198.728 297.109 197.91 296.848C195.901 296.179 193.038 295.509 192.108 295.509C191.03 295.509 184.819 293.351 183.034 292.347C182.216 291.9 179.947 290.71 178.013 289.705C174.22 287.771 170.836 285.688 167.637 283.269C166.522 282.414 165.443 281.744 165.22 281.744C164.997 281.744 162.505 279.438 159.716 276.61C154.547 271.439 151.311 267.421 147.332 261.246C144.059 256.149 143.911 255.926 143.316 254.14C143.018 253.247 142.349 251.61 141.828 250.457C140.043 246.439 137.737 238.478 136.547 232.451C135.952 229.363 135.766 215.338 136.324 211.99C136.919 208.269 138.965 199.415 139.485 198.225C139.745 197.592 140.378 195.918 140.824 194.505C141.902 191.156 144.097 186.394 145.324 184.683C145.845 183.939 146.737 182.488 147.332 181.484C147.927 180.442 149.043 178.768 149.824 177.726C150.605 176.685 151.237 175.717 151.237 175.531C151.237 175.383 152.018 174.341 153.022 173.299C153.989 172.22 155.737 170.211 156.964 168.872C160.311 165.04 166.633 159.832 171.505 156.893C172.732 156.149 174.146 155.182 174.703 154.735C175.856 153.768 181.546 150.829 182.736 150.643C183.666 150.457 190.583 147.964 191.439 147.481C192.108 147.109 195.195 146.476 198.095 146.104C199.211 145.993 200.364 145.695 200.624 145.472C200.885 145.286 202.893 145.025 205.087 144.951C207.281 144.839 209.141 144.691 209.215 144.616C209.55 144.319 221.525 144.877 222.492 145.211Z" fill="url(#paint2_linear_2279_1749)"/>
<path fill-rule="evenodd" clip-rule="evenodd" d="M108.395 258.307C106.87 258.493 105.531 259.051 103.449 260.316C101.85 261.246 100.436 262.027 100.288 262.027C99.8413 262.027 97.2009 265.115 96.7174 266.156C94.3001 271.29 94.1141 272.592 94.9695 279.252C95.2298 281.409 96.7918 283.902 99.8785 287.064C103.188 290.487 105.606 291.417 111.519 291.417H115.126L117.209 293.909C118.324 295.323 119.998 297.406 120.853 298.634C122.75 301.275 135.394 314.11 136.77 314.817C137.328 315.077 138.63 316.156 139.634 317.235C141.456 319.095 141.493 319.17 141.233 320.695C140.489 324.564 141.94 331.707 144.022 334.534C145.101 335.985 147.518 338.255 148.001 338.292C148.187 338.292 149.34 338.887 150.567 339.594C153.729 341.454 155.142 341.677 159.828 341.119C164.179 340.561 163.918 340.673 166.931 338.403C174.592 332.563 176.302 325.271 172.026 316.454C170.427 313.18 168.121 310.688 165.964 310.055C165.332 309.832 163.844 309.311 162.617 308.902C157.819 307.191 152.464 307.86 148.559 310.65C146.402 312.213 146.142 312.101 141.754 308.083C140.117 306.595 137.774 304.512 136.584 303.508C133.795 301.127 123.642 289.185 123.828 288.441C123.828 288.329 123.754 287.883 123.568 287.436C123.382 286.841 123.68 286.097 124.758 284.46C127.027 281.037 127.25 280.256 127.25 274.862C127.25 270.211 127.213 269.914 126.097 267.57C124.981 265.226 122.527 262.027 121.82 262.027C121.671 262.027 120.704 261.506 119.738 260.911C117.915 259.72 112.523 257.897 111.221 257.972C110.849 258.009 109.585 258.158 108.395 258.307ZM114.829 267.942C118.957 270.732 120.333 274.266 118.733 278.061C117.655 280.665 113.787 283.232 110.998 283.232C103.597 283.195 100.102 275.159 105.048 269.542C107.986 266.268 111.519 265.673 114.829 267.942ZM161.129 317.496C167.675 320.658 167.414 329.996 160.757 332.079C157.596 333.083 155.588 333.009 153.803 331.744C147.778 327.577 148.187 319.356 154.584 316.752C155.96 316.194 159.27 316.566 161.129 317.496Z" fill="url(#paint3_linear_2279_1749)"/>
<defs>
<linearGradient id="paint0_linear_2279_1749" x1="323.61" y1="370.546" x2="114.476" y2="49.9966" gradientUnits="userSpaceOnUse">
<stop stop-color="#2F70CC"/>
<stop offset="0.55" stop-color="#1C4E96"/>
<stop offset="1" stop-color="#0E2A4E"/>
</linearGradient>
<linearGradient id="paint1_linear_2279_1749" x1="350.955" y1="175.497" x2="277.408" y2="61.9591" gradientUnits="userSpaceOnUse">
<stop stop-color="#2F70CC"/>
<stop offset="0.55" stop-color="#1C4E96"/>
<stop offset="1" stop-color="#0E2A4E"/>
</linearGradient>
<linearGradient id="paint2_linear_2279_1749" x1="272.429" y1="344.505" x2="120.308" y2="113.055" gradientUnits="userSpaceOnUse">
<stop stop-color="#2F70CC"/>
<stop offset="0.55" stop-color="#1C4E96"/>
<stop offset="1" stop-color="#0E2A4E"/>
</linearGradient>
<linearGradient id="paint3_linear_2279_1749" x1="156.76" y1="336.382" x2="107.527" y2="263.287" gradientUnits="userSpaceOnUse">
<stop stop-color="#2F70CC"/>
<stop offset="0.55" stop-color="#1C4E96"/>
<stop offset="1" stop-color="#0E2A4E"/>
</linearGradient>
</defs>
</svg>
