<svg width="1122" height="318" viewBox="0 0 1122 318" fill="none" xmlns="http://www.w3.org/2000/svg">
<path d="M1096.6 253.4C1085.8 253.4 1076.6 251.6 1068.9 248.1C1061.4 244.4 1055.7 238.7 1051.8 231C1047.8 223.3 1045.9 213.7 1045.9 202.1V120.2H1015.1C1013 120.2 1011.3 118.5 1011.3 116.4V94.4C1011.3 92.3 1013 90.6 1015.1 90.6H1045.9V37.8C1045.9 35.7 1047.6 34 1049.7 34H1079C1081.3 34 1083.2 35.9 1083.2 38.2V90.6H1117.3C1119.4 90.6 1121.1 92.3 1121.1 94.4V116.4C1121.1 118.5 1119.4 120.2 1117.3 120.2H1083.2V194.8C1083.2 207.1 1083.8 213.4 1091.8 218.2C1095.3 220.2 1101.4 220.7 1106.9 220.7C1112.4 220.7 1112 220.6 1114.7 220.3C1117 220.1 1119.1 221.8 1119.1 224.2V247.8C1119.1 249.5 1117.9 251 1116.3 251.3C1114.3 251.7 1112 252 1109.2 252.3C1105 253 1100.9 253.3 1096.7 253.3L1096.6 253.4Z" fill="#191818"/>
<path d="M955.699 94.5C955.699 92.4 957.399 90.7 959.499 90.7H989.199C991.299 90.7 992.999 92.4 992.999 94.5V246.7C992.999 248.8 991.299 250.5 989.199 250.5H959.499C957.399 250.5 955.699 248.8 955.699 246.7V94.5Z" fill="#191818"/>
<path d="M955.699 38C955.699 35.9 957.399 34.2 959.499 34.2H989.199C991.299 34.2 992.999 35.9 992.999 38V67.6C992.999 69.7 991.299 71.4 989.199 71.4H959.499C957.399 71.4 955.699 69.7 955.699 67.6V38Z" fill="#191818"/>
<path d="M885.5 24.1C885.5 22 887.2 20.3 889.3 20.3H918.9C921 20.3 922.7 22 922.7 24.1V246.7C922.7 248.8 921 250.5 918.9 250.5H889.3C887.2 250.5 885.5 248.8 885.5 246.7V24.1Z" fill="#191818"/>
<path d="M698.9 94.5C698.9 92.4 700.6 90.7 702.7 90.7H732.4C734.5 90.7 736.2 92.4 736.2 94.5V98.9C736.2 103.1 735.9 107.9 735.2 113.4C740.3 104.6 747.3 97.8 756.3 93C765.3 88 775.9 85.4 787.9 85.4C799.9 85.4 814.7 89 825.5 96.2C836.3 103.4 844.5 113.6 850.2 126.8C856.1 139.7 859.1 154.5 859.1 171.2C859.1 187.9 855.9 203 849.5 215.9C843.3 228.6 834.7 238.5 823.5 245.5C812.5 252.5 800.1 256 786.3 256C772.5 256 763.8 253.6 755.7 248.8C747.6 244 740.8 237.2 735.3 228.4C736 233.9 736.3 238.8 736.3 243.2V314C736.3 316.1 734.6 317.8 732.5 317.8H702.8C700.7 317.8 699 316.1 699 314V94.4L698.9 94.5ZM778 227.1C786.6 227.1 794 224.7 800.4 219.9C807 215.1 812 208.5 815.6 200.2C819.1 191.7 820.9 181.8 820.9 170.6C820.9 159.4 819.1 150 815.6 141.7C812.1 133.4 807 126.8 800.4 122C794 117.2 786.6 114.8 778 114.8C769.4 114.8 762.2 117.1 755.6 121.7C749 126.3 743.8 132.8 740.1 141.1C736.4 149.4 734.5 159.3 734.5 170.7C734.5 182.1 736.4 191.7 740.1 200.3C743.8 208.6 748.9 215.2 755.3 220C761.9 224.8 769.5 227.2 778 227.2V227.1Z" fill="#191818"/>
<path d="M598.8 256.1C583 256.1 568.9 252.8 556.6 246.2C544.5 239.4 535.1 229.5 528.3 216.6C521.5 203.7 518.1 188.2 518.1 170.2C518.1 152.2 521.5 138.9 528.3 126.1C535.1 113.2 544.6 103.2 556.6 96.2C568.7 89 582.3 85.4 597.5 85.4C612.7 85.4 627.3 88.9 638.7 95.9C650.1 102.9 658.8 112.9 664.7 125.8C670.9 138.7 673.9 153.9 673.9 171.2V175.3C673.9 177.4 672.2 179.1 670.1 179.1H555.9C556.1 188.3 558 196.5 561.5 203.8C565.2 211 570.3 216.7 576.7 220.9C583.3 225.1 590.8 227.1 599.1 227.1C607.4 227.1 616.6 224.7 623.2 219.9C629.2 215.5 633.1 209.5 634.9 201.7C635.2 200.3 636.5 199.2 638 199.2H668.8C671 199.2 672.8 201.1 672.4 203.4C670.8 212.3 667.3 220.6 661.8 228.2C655.6 236.7 647.2 243.5 636.4 248.6C625.6 253.6 613.1 256.2 598.8 256.2V256.1ZM635.7 152.5C635.3 140.7 631.6 131.2 624.8 124.2C618 117 608.8 113.4 597.1 113.4C585.4 113.4 576.4 117.1 568.8 124.6C561.3 131.8 557 141.1 555.9 152.5H635.6H635.7Z" fill="#191818"/>
<path d="M325.399 23.4C325.399 21.7 326.799 20.4 328.399 20.4H426.499C448.899 20.4 466.799 25.7 480.199 36.2C493.599 46.5 500.299 61.4 500.299 80.9C500.299 100.4 495.999 107.4 487.399 117.1C478.799 126.7 468.499 133.4 456.399 137.2C469.099 139.2 478.899 144.8 485.699 154C492.699 163.2 496.199 175.3 496.199 190.2V246.9C496.199 249 494.499 250.7 492.399 250.7H460.099C457.999 250.7 456.299 249 456.299 246.9V195.5C456.299 180.6 453.199 170.2 447.099 164.3C441.199 158.4 430.599 155.4 415.499 155.4H365.099V247.7C365.099 249.4 363.699 250.7 362.099 250.7H328.299C326.599 250.7 325.299 249.3 325.299 247.7V23.6L325.399 23.4ZM418.599 121.3C427.399 121.3 434.899 120.1 440.999 117.7C447.199 115.1 451.799 111.2 454.799 106.2C457.899 101.2 459.399 95 459.399 87.8C459.399 76.6 455.899 68.2 448.899 62.5C441.899 56.8 431.799 54 418.599 54H365.199V121.4H418.599V121.3Z" fill="#191818"/>
<path d="M99 70.9C99 72.1 99 72.7 99 73.3C99.3 77.1 100.9 81 103.4 83.9C103.8 84.4 104.2 84.7 104.9 85.5C108.2 88.8 112.7 90.6 117.4 90.6H168C178.1 90.6 183.2 90.6 187 92.6C190.4 94.3 193.2 97.1 194.9 100.5C196.9 104.4 196.9 109.4 196.9 119.5V150C196.9 160.1 196.9 165.1 194.9 169C193.2 172.4 190.4 175.1 187 176.9C183.1 178.9 178.1 178.9 168 178.9H117.2C112.6 178.9 108.1 180.7 104.8 183.9C104.1 184.6 103.7 185 103.3 185.5C100.8 188.4 99.2 192.3 98.9 196.1C98.9 196.7 98.9 197.3 98.9 198.5V240.5C98.9 250.6 98.9 255.6 96.9 259.5C95.2 262.9 92.4 265.6 89 267.4C85.1 269.4 80.1 269.4 70 269.4H28.9C18.8 269.4 13.7 269.4 9.89999 267.4C6.49999 265.7 3.7 262.9 2 259.5C0 255.6 0 250.6 0 240.5V207.9C0 197.8 0 192.8 2 188.9C3.7 185.5 6.49999 182.8 9.89999 181C13.8 179 18.8 179 28.9 179H79.8C80 179 80.2 179 80.3 179C84.8 179 89.3 177 92.6 173.9C92.7 173.8 92.8 173.7 92.9 173.7C93.8 172.8 94.2 172.4 94.7 171.9C97.1 169.1 98.7 165.3 99 161.6C99 160.9 99 160.2 99 158.8V110.5C99 109.1 99 108.4 99 107.7C98.7 104 97.1 100.2 94.7 97.4C94.2 96.9 93.8 96.4 92.9 95.5C89.6 92.2 85.1 90.4 80.4 90.4H29C18.9 90.4 13.8 90.4 10 88.4C6.6 86.7 3.80001 83.9 2.10001 80.5C0.100006 76.6 0.100006 71.6 0.100006 61.5V28.9C0.100006 18.8 0.100006 13.8 2.10001 9.89999C3.80001 6.49999 6.6 3.8 10 2C13.9 0 18.9 0 29 0H70.1C80.2 0 85.3 0 89.1 2C92.5 3.7 95.3 6.49999 97 9.89999C99 13.8 99 18.8 99 28.9V70.7V70.9Z" fill="#FF3C00"/>
</svg>
